<svg id="Layer_4" data-name="Layer 4" xmlns="http://www.w3.org/2000/svg" viewBox="0 0 500 500"><defs><style>.cls-1{fill:#c0dd9a;}</style></defs><path class="cls-1" d="M42.06,74.18V477.41c0,4.81,3.39,6.75,7.54,4.3l75-44.26a5.56,5.56,0,0,0,2.46-4.31V76.5a5,5,0,0,1,5-5h125a5,5,0,0,1,5,5V334.63c0,5.15,3.5,7,7.79,4.15l75-50.29a5.64,5.64,0,0,0,2.21-4.16V19.51a5,5,0,0,0-5-5l-213.48.41a5.86,5.86,0,0,0-2.76.84L44.29,70A5.58,5.58,0,0,0,42.06,74.18Z"/><path class="cls-1" d="M245.8,379.85l-70.09,47c-7.51,5-6.25,9.15,2.78,9.15h192a5.87,5.87,0,0,0,2.79-.85l81.59-54.66a5.62,5.62,0,0,0,2.22-4.16V77.24c0-5.16-3.5-7-7.78-4.15l-75,50.3a5.59,5.59,0,0,0-2.22,4.13L371.11,374a5,5,0,0,1-5,5H248.58A5.8,5.8,0,0,0,245.8,379.85Z"/><path class="cls-1" d="M154.53,180.05l75-44.12c4.14-2.44,7.53-.5,7.53,4.31V309.32a5.64,5.64,0,0,1-2.21,4.15l-75,50.31c-4.29,2.87-7.79,1-7.79-4.15V184.36A5.56,5.56,0,0,1,154.53,180.05Z"/></svg>